<?xml version="1.0" encoding="utf-8"?>
<!-- Generator: Adobe Illustrator 21.0.0, SVG Export Plug-In . SVG Version: 6.00 Build 0)  -->
<svg version="1.0" id="Layer_2" xmlns="http://www.w3.org/2000/svg" xmlns:xlink="http://www.w3.org/1999/xlink" x="0px" y="0px"
	 viewBox="0 0 2036.3 269.4" style="enable-background:new 0 0 2036.3 269.4;" xml:space="preserve">
<style type="text/css">
	.st0{fill:#1552FF;}
	.st1{fill:#FFD93B;}
	.st2{fill:#F4C534;}
</style>
<path class="st0" d="M2046.3,23.6c0,0-1262.7,182.7-1606.2,163.2C204.6,162.8-10,23.6-10,23.6V-7.7L2046.3-3V23.6z"/>
<g>
	<path class="st1" d="M366.7,198.4c38.4,0,69.6-31.2,69.6-69.6c0-17-6.1-32.6-16.3-44.7c31.4,10.1,54.1,39.5,54.1,74.2
		c0,43-34.9,77.9-77.9,77.9c-34.7,0-64.1-22.7-74.2-54.1C334.1,192.3,349.7,198.4,366.7,198.4z"/>
	<path class="st2" d="M444.4,97.1c10.4,13.2,16.7,29.9,16.7,48.1c0,43-34.9,77.9-77.9,77.9c-18.2,0-34.8-6.3-48.1-16.7
		c14.3,18.1,36.3,29.8,61.2,29.8c43,0,77.9-34.9,77.9-77.9C474.1,133.4,462.5,111.4,444.4,97.1z"/>
</g>
</svg>
