<?xml version="1.0" encoding="utf-8"?>
<!-- Generator: Adobe Illustrator 21.0.0, SVG Export Plug-In . SVG Version: 6.00 Build 0)  -->
<svg version="1.0" id="Layer_2" xmlns="http://www.w3.org/2000/svg" xmlns:xlink="http://www.w3.org/1999/xlink" x="0px" y="0px"
	 viewBox="0 0 2056.3 244.9" style="enable-background:new 0 0 2056.3 244.9;" xml:space="preserve">
<style type="text/css">
	.st0{fill:#F3F6FF;}
	.st1{fill:#FFD93B;}
	.st2{fill:#1552FF;}
</style>
<rect class="st0" width="2056.3" height="244.9"/>
<path class="st1" d="M1635.7,33.4c1,2.2,0.1,4.7-2.1,5.8c-2.2,1-4.7,0.1-5.8-2.1c0-0.1-0.1-0.2-0.1-0.3l-9.5-22.5
	c-1-2.2-0.1-4.7,2.1-5.8c2.2-1,4.7-0.1,5.8,2.1c0,0.1,0.1,0.2,0.1,0.3L1635.7,33.4z M1597.5,60.4c1.9,1.5,2.2,4.2,0.6,6.1
	c-1.4,1.8-4,2.1-5.9,0.8l-19.5-14.7c-1.9-1.5-2.2-4.2-0.6-6.1c1.4-1.8,4-2.1,5.9-0.8L1597.5,60.4z M1578,102.8
	c2.4,0.3,4.1,2.5,3.8,4.8s-2.5,4.1-4.8,3.8l-24.2-3c-2.4-0.3-4.1-2.5-3.8-4.8c0.3-2.4,2.5-4.1,4.8-3.8l0,0L1578,102.8z
	 M1582.2,149.3c2.2-1,4.7-0.1,5.8,2.1c1,2.2,0.1,4.7-2.1,5.8c-0.1,0-0.2,0.1-0.3,0.1l-22.4,9.6c-2.2,1-4.7,0.1-5.8-2.1
	c-1-2.2-0.1-4.7,2.1-5.8c0.1,0,0.2-0.1,0.3-0.1L1582.2,149.3z M1609.3,187.5c1.5-1.9,4.2-2.2,6.1-0.6c1.8,1.4,2.1,4,0.8,5.9
	l-14.7,19.5c-1.4,2-4.1,2.4-6,1.1c-2-1.4-2.4-4.1-1.1-6c0.1-0.1,0.1-0.2,0.2-0.2L1609.3,187.5z M1651.7,207.1
	c0.3-2.4,2.5-4.1,4.8-3.8c2.4,0.3,4.1,2.5,3.8,4.8l-3,24.2c-0.3,2.4-2.5,4.1-4.8,3.8s-4.1-2.5-3.8-4.8L1651.7,207.1z M1698.2,202.8
	c-0.9-2.2,0.2-4.7,2.5-5.6c2.1-0.8,4.5,0.1,5.5,2.2l9.5,22.5c1,2.2,0.1,4.7-2.1,5.8s-4.7,0.1-5.8-2.1c0-0.1-0.1-0.2-0.1-0.3
	L1698.2,202.8z M1736.4,175.8c-2-1.4-2.4-4.1-1.1-6c1.4-2,4.1-2.4,6-1.1c0.1,0.1,0.2,0.1,0.2,0.2l19.5,14.7c2,1.4,2.4,4.1,1.1,6
	c-1.4,2-4.1,2.4-6,1.1c-0.1-0.1-0.2-0.1-0.2-0.2L1736.4,175.8z M1756,133.4c-2.4-0.3-4.1-2.5-3.8-4.8c0.3-2.4,2.5-4.1,4.8-3.8l0,0
	l24.2,3c2.4,0.3,4.1,2.5,3.8,4.8c-0.3,2.4-2.5,4.1-4.8,3.8l0,0L1756,133.4z M1751.7,86.8c-2.2,1-4.7,0.1-5.8-2.1
	c-1-2.2-0.1-4.7,2.1-5.8c0.1,0,0.2-0.1,0.3-0.1l22.5-9.5c2.2-0.9,4.7,0.2,5.6,2.5c0.8,2.1-0.1,4.5-2.2,5.5L1751.7,86.8z
	 M1724.7,48.7c-1.4,2-4.1,2.4-6,1.1c-2-1.4-2.4-4.1-1.1-6c0.1-0.1,0.1-0.2,0.2-0.2l14.7-19.5c1.4-2,4.1-2.4,6-1.1
	c2,1.4,2.4,4.1,1.1,6c-0.1,0.1-0.1,0.2-0.2,0.2L1724.7,48.7z M1682.3,29.1c-0.3,2.4-2.5,4.1-4.8,3.8c-2.4-0.3-4.1-2.5-3.8-4.8l0,0
	l3-24.2c0.3-2.4,2.5-4.1,4.8-3.8s4.1,2.5,3.8,4.8L1682.3,29.1z M1674.2,59.1c32.6,4,55.8,33.7,51.8,66.3s-33.7,55.8-66.3,51.8
	c-32.6-4-55.8-33.7-51.8-66.3S1641.6,55.1,1674.2,59.1z"/>
<path class="st2" d="M-20,213.6c0,0,1432.4-96.2,1629.4-82.2s466.9,92.2,466.9,92.2v31.3L-20,260.2V213.6z"/>
</svg>
