<?xml version="1.0" encoding="utf-8"?>
<!-- Svg Vector Icons : http://www.onlinewebfonts.com/icon -->
<!DOCTYPE svg PUBLIC "-//W3C//DTD SVG 1.1//EN" "http://www.w3.org/Graphics/SVG/1.1/DTD/svg11.dtd">
<svg version="1.1" xmlns="http://www.w3.org/2000/svg" xmlns:xlink="http://www.w3.org/1999/xlink" x="0px" y="0px" viewBox="0 0 1000 1000" enable-background="new 0 0 1000 1000" xml:space="preserve">
<metadata> Svg Vector Icons : http://www.onlinewebfonts.com/icon </metadata>
<g><g transform="translate(0.000000,512.000000) scale(0.100000,-0.100000)"><path d="M4689.7,5017.8c-1077-99.6-2006.5-534.7-2753.9-1287.8c-343-345-663.1-812.6-864.3-1262.9c-124.6-274-124.6-260.6,28.7-318.1c70.9-24.9,136.1-44.1,141.8-40.2c5.7,3.8,26.8,47.9,46,97.7c65.2,176.3,262.6,553.8,387.1,741.6c745.5,1119.2,1972,1774.6,3325,1774.6c1521.6,0,2880.4-839.4,3560.7-2202c63.2-124.6,115-233.8,115-237.6c0-5.8,17.3-47.9,36.4-95.8l36.4-86.2l138,49.8c161,57.5,161,40.2,24.9,337.3c-613.3,1337.7-1855.1,2276.7-3302,2493.3C5410.3,5010.2,4856.4,5033.2,4689.7,5017.8z"/><path d="M4689.7,2536.1c-105.4-47.9-201.2-136.1-253-233.8c-26.8-55.6-44.1-70.9-69-61.3c-136.1,55.6-299,15.3-431.2-103.5c-74.7-67.1-166.7-228.1-166.7-293.2c0-30.7-97.7-34.5-1594.5-38.3L579,1800.2l-107.3-49.8c-139.9-65.2-256.8-184-320-322c-136.1-289.4,5.7-638.2,320-785.7L579,592.8l1289.7-5.7l1287.8-5.8V334.1V85l161-322C3444-488,3526.4-622.2,3700.8-854.1l222.3-297V-1383c0-220.4-1.9-233.8-46-274.1c-111.2-105.4-107.3-40.3-107.3-1648.1v-1477.6h153.3h153.3v1456.5v1456.5h919.9h919.9v-1456.5v-1456.5h153.3h153.3v1477.6c0,1607.9,3.8,1542.7-107.3,1648.1c-84.3,78.6-67.1,162.9,184,1002.3l230,764.6v237.6v235.7h1243.8h1241.8l423.5,253c613.3,366,611.3,352.6,17.3,714.8l-406.3,249.1l-1276.3,5.7l-1276.3,3.8l-26.8,49.8c-13.4,28.8-67.1,86.2-116.9,132.2c-139.9,124.6-302.8,155.2-450.4,82.4c-51.7-26.8-57.5-23-153.3,61.3c-138,124.6-289.4,161-431.2,105.4c-24.9-9.6-42.2,5.7-70.9,63.2c-49.8,97.7-189.7,220.4-285.5,249.1C4856.4,2585.9,4789.4,2582.1,4689.7,2536.1z M4958,2231.4c36.4-36.4,38.3-63.2,38.3-383.3v-345h153.3H5303v191.6c0,226.1,23,268.3,153.3,268.3s153.3-42.2,153.3-268.3v-191.6h153.3h153.3v115c0,143.7,38.3,191.6,153.3,191.6c51.7,0,90.1-13.4,115-38.3c36.4-36.4,38.3-63.2,38.3-837.5V132.9l-230-764.7c-139.9-467.6-230-797.2-230-849v-82.4h-766.6h-766.6v251.1v253L3992.1-741c-185.9,249.1-270.2,381.4-383.3,609.4l-145.6,293.2v210.8v210.8h153.3h153.3v-76.7v-76.7h153.3h153.3v728.2c0,703.3,1.9,730.2,38.3,766.6c24.9,24.9,63.2,38.3,115,38.3c130.3,0,153.3-42.2,153.3-268.3v-191.6h153.3h153.3v345c0,320,1.9,346.9,38.3,383.3c24.9,24.9,63.2,38.3,115,38.3S4933.1,2256.3,4958,2231.4z M1010.2,1196.5V889.9H814.7c-312.4,0-408.2,70.9-408.2,306.6s95.8,306.6,408.2,306.6h195.5V1196.5z M1623.4,1196.5V889.9h-153.3h-153.3v306.6v306.6h153.3h153.3V1196.5z M3769.8,1196.5V889.9H2850h-919.9v306.6v306.6H2850h919.9V1196.5z M8062.6,1196.5V889.9H7296h-766.6v306.6v306.6H7296h766.6V1196.5z M9193.3,1355.6c136.1-82.4,249.1-153.3,249.1-159.1c-1.9-5.7-113.1-76.7-251-157.2l-251.1-149.5h-285.5h-285.5v306.6v306.6h289.4h287.5L9193.3,1355.6z"/><path d="M833.9,282.4c-92-7.7-92-7.7-92-76.7c0-122.6,95.8-548.1,184-814.5c295.1-887.3,887.3-1673,1661.5-2202c92-65.2,172.5-113.1,174.4-111.2c57.5,72.8,147.6,253,134.2,264.5c-9.6,9.6-84.3,61.3-166.7,115c-689.9,461.8-1249.5,1201.6-1515.9,2014.2c-72.8,224.2-122.7,435-174.4,753.2C1027.4,303.4,1042.8,297.7,833.9,282.4z"/><path d="M8953.7,221c-95.8-603.7-251-1056-515.5-1502.5c-291.3-496.4-732.1-965.9-1199.7-1278.3c-69-46-128.4-84.3-132.2-88.1c-9.6-7.7,138-256.8,151.4-256.8c47.9,0,469.5,325.8,695.7,536.6c661.2,619,1193.9,1655.8,1289.7,2504.8l11.5,116.9l-82.4,11.5C8948,291.9,8965.2,295.8,8953.7,221z"/><path d="M4383.1-2329.7V-2483h153.3h153.3v153.3v153.3h-153.3h-153.3V-2329.7z"/><path d="M3156.6-3402.9v-153.3h153.3h153.3v153.3v153.3h-153.3h-153.3V-3402.9z"/><path d="M6529.5-3402.9v-153.3h153.3h153.3v153.3v153.3h-153.3h-153.3V-3402.9z"/><path d="M3156.6-4016.2v-153.3h153.3h153.3v153.3v153.3h-153.3h-153.3V-4016.2z"/><path d="M6529.5-4016.2v-153.3h153.3h153.3v153.3v153.3h-153.3h-153.3V-4016.2z"/><path d="M3156.6-4629.4v-153.3h153.3h153.3v153.3v153.3h-153.3h-153.3V-4629.4z"/><path d="M6529.5-4629.4v-153.3h153.3h153.3v153.3v153.3h-153.3h-153.3V-4629.4z"/></g></g>
</svg>