<svg xmlns="http://www.w3.org/2000/svg" viewBox="0 0 1514.33 558.45"><defs><style>.cls-1{fill:#f15b61;}.cls-2{fill:#3c444d;}.cls-3{fill:#fff;}.cls-4,.cls-5{fill:none;stroke:#3c444d;stroke-miterlimit:10;}.cls-5{stroke-dasharray:11.65 11.65;}</style></defs><title>logo_process</title><g id="Layer_2" data-name="Layer 2"><path class="cls-1" d="M365.62,272.58a47.72,47.72,0,0,1,14.51,34.71A46.71,46.71,0,0,1,366,341.89l-34.48,34.48L185.9,230.78l34.48-34.48A46.65,46.65,0,0,1,255,182.08a47.67,47.67,0,0,1,34.54,14.45Zm-33.9,60.14L345,319.48a16.57,16.57,0,0,0,5-12.6,17.6,17.6,0,0,0-5.28-12.48l-76.16-76.16A17.38,17.38,0,0,0,256,213a16.78,16.78,0,0,0-12.48,5l-13.24,13.24Z"/><path class="cls-1" d="M621.83,321.58a47.09,47.09,0,0,1,14.4-34.83l20.32-20.32,22.76,22.76-20.09,20.09a17,17,0,0,0-5.17,12.6,17.37,17.37,0,0,0,5.28,12.6,17.66,17.66,0,0,0,25.08,0l79.65-79.64a17.38,17.38,0,0,0,5.28-12.6,17,17,0,0,0-5.17-12.6,17.93,17.93,0,0,0-25.31,0L721.8,246.69,699,223.94l16.6-16.6a47.73,47.73,0,0,1,34.71-14.51A49.25,49.25,0,0,1,799.64,242a47.36,47.36,0,0,1-14.45,34.89l-79.41,79.41a49.23,49.23,0,0,1-83.94-34.71Z"/><rect class="cls-2" x="474.76" y="276.7" width="67.43" height="5.06"/><rect class="cls-2" x="474.76" y="276.7" width="67.43" height="5.06" transform="translate(229.25 787.7) rotate(-90)"/><rect class="cls-2" x="929.17" y="296.7" width="67.43" height="5.06"/><rect class="cls-2" x="929.17" y="266.7" width="67.43" height="5.06" transform="translate(1925.77 538.45) rotate(-180)"/><path class="cls-1" d="M1381.42,192.21A46.48,46.48,0,0,0,1347.05,178a47.1,47.1,0,0,0-34.26,14.32l-16.38,16.38,22.46,22.46,16.84-16.84a17.7,17.7,0,0,1,25,0,16.74,16.74,0,0,1,5.1,12.43,17.15,17.15,0,0,1-5.21,12.43L1312.78,287a48.67,48.67,0,0,0-10.53-15.34l-75-75a47,47,0,0,0-34.08-14.26,46,46,0,0,0-34.2,14l-34,34,143.67,143.67,34-34c1-1,1.86-2,2.73-3l76.1-76.1a48.55,48.55,0,0,0,0-68.74Zm-157.53,93.86-55.23-55.22,13.06-13.06a16.56,16.56,0,0,1,12.32-5,17.15,17.15,0,0,1,12.43,5.21l40.31,40.31-12.36,12.36A48.42,48.42,0,0,0,1223.89,286.07Z"/><path class="cls-3" d="M1264,296.92a9,9,0,0,0-6.54-2.74,8.83,8.83,0,0,0-6.56,2.69l-6.53,6.53L1272,331l6.53-6.53c.2-.2.39-.4.56-.61l14.56-14.56a9.31,9.31,0,1,0-13.17-13.17l-8.62,8.62Z"/><line class="cls-4" x1="216.88" y1="123.87" x2="221.14" y2="128.11"/><line class="cls-5" x1="229.39" y1="136.32" x2="456.5" y2="362.34"/><line class="cls-4" x1="460.63" y1="366.45" x2="464.88" y2="370.69"/><line class="cls-4" x1="161.02" y1="162.96" x2="165.27" y2="167.2"/><line class="cls-5" x1="173.53" y1="175.42" x2="400.64" y2="401.44"/><line class="cls-4" x1="404.77" y1="405.55" x2="409.02" y2="409.78"/><line class="cls-4" x1="132.14" y1="175.82" x2="136.39" y2="180.05"/><line class="cls-5" x1="144.65" y1="188.27" x2="371.76" y2="414.29"/><line class="cls-4" x1="375.88" y1="418.4" x2="380.14" y2="422.63"/><line class="cls-4" x1="366.65" y1="94.12" x2="362.39" y2="98.35"/><line class="cls-5" x1="354.14" y1="106.57" x2="127.03" y2="332.59"/><line class="cls-4" x1="122.9" y1="336.7" x2="118.65" y2="340.93"/><line class="cls-4" x1="797.21" y1="126.12" x2="792.95" y2="130.36"/><line class="cls-5" x1="784.69" y1="138.58" x2="557.59" y2="364.6"/><line class="cls-4" x1="553.46" y1="368.71" x2="549.21" y2="372.94"/><line class="cls-4" x1="826.19" y1="143.29" x2="821.94" y2="147.52"/><line class="cls-5" x1="813.68" y1="155.74" x2="586.57" y2="381.76"/><line class="cls-4" x1="582.44" y1="385.87" x2="578.19" y2="390.1"/><line class="cls-4" x1="464.88" y1="202.88" x2="460.63" y2="207.11"/><line class="cls-5" x1="452.37" y1="215.33" x2="225.27" y2="441.35"/><line class="cls-4" x1="221.14" y1="445.46" x2="216.88" y2="449.69"/><line class="cls-4" x1="850.31" y1="169.95" x2="846.06" y2="174.18"/><line class="cls-5" x1="837.8" y1="182.4" x2="610.69" y2="408.42"/><line class="cls-4" x1="606.56" y1="412.53" x2="602.31" y2="416.76"/><line class="cls-4" x1="869.83" y1="189.54" x2="865.58" y2="193.77"/><line class="cls-5" x1="857.32" y1="201.99" x2="630.22" y2="428.01"/><line class="cls-4" x1="626.09" y1="432.12" x2="621.83" y2="436.35"/><line class="cls-4" x1="586.74" y1="110.86" x2="590.99" y2="115.09"/><line class="cls-5" x1="599.25" y1="123.31" x2="826.35" y2="349.33"/><line class="cls-4" x1="830.48" y1="353.44" x2="834.74" y2="357.67"/><line class="cls-4" x1="551.48" y1="161.6" x2="555.74" y2="165.83"/><line class="cls-5" x1="563.99" y1="174.05" x2="791.1" y2="400.07"/><line class="cls-4" x1="795.23" y1="404.18" x2="799.48" y2="408.42"/></g></svg>